<?xml version="1.0" standalone="no"?>
<!DOCTYPE svg PUBLIC "-//W3C//DTD SVG 20010904//EN"
 "http://www.w3.org/TR/2001/REC-SVG-20010904/DTD/svg10.dtd">
<svg version="1.0" xmlns="http://www.w3.org/2000/svg"
 width="480.000000pt" height="480.000000pt" viewBox="0 0 480.000000 480.000000"
 preserveAspectRatio="xMidYMid meet">
<metadata>
Created by potrace 1.16, written by Peter Selinger 2001-2019
</metadata>
<g transform="translate(0.000000,480.000000) scale(0.100000,-0.100000)"
fill="#000000" stroke="none">
<path d="M1945 3893 c-424 -52 -830 -187 -983 -327 -53 -48 -105 -203 -118
-356 l-7 -74 54 45 c214 181 618 345 942 384 l59 8 -182 -179 c-325 -319 -547
-599 -672 -845 l-53 -104 0 -95 c1 -126 26 -191 104 -272 32 -32 64 -58 74
-58 10 0 24 18 36 46 36 80 185 217 382 352 86 58 271 163 266 150 -2 -7 -30
-74 -60 -148 -268 -654 -365 -1257 -270 -1667 16 -71 33 -96 33 -50 0 114 223
721 474 1292 139 315 356 731 387 743 17 7 9 58 -20 117 -30 64 -75 111 -118
121 -87 22 -305 -56 -520 -187 -95 -58 -260 -176 -312 -224 -134 -122 110 177
294 360 284 284 628 535 733 535 26 0 32 5 44 38 18 52 17 257 -2 297 -38 76
-146 106 -377 104 -87 -1 -171 -4 -188 -6z"/>
<path d="M3430 3624 c-265 -30 -546 -110 -706 -199 -178 -100 -269 -231 -249
-361 l7 -47 41 41 c58 56 151 104 292 151 115 38 309 82 425 95 l55 6 -30 -26
c-442 -388 -721 -707 -846 -968 -39 -80 -39 -82 -26 -128 17 -54 66 -129 101
-151 l25 -17 103 103 c119 118 248 213 399 291 113 59 249 118 249 107 0 -3
-28 -40 -61 -81 -88 -109 -303 -397 -393 -526 -70 -99 -83 -113 -120 -124 -22
-6 -67 -26 -99 -42 -66 -36 -72 -45 -142 -254 -73 -217 -116 -424 -86 -412 5
2 69 68 141 148 212 231 306 328 337 343 104 53 475 148 788 201 103 18 438
66 456 66 55 0 -143 53 -264 71 -106 16 -454 14 -579 -3 -54 -8 -98 -11 -98
-8 0 11 378 380 473 462 77 68 128 105 193 144 17 10 17 14 4 55 -21 64 -102
179 -167 239 l-57 52 -64 -6 c-142 -15 -354 -105 -544 -233 -60 -39 -108 -68
-108 -63 0 4 73 82 163 172 301 305 537 461 716 476 l64 5 -7 71 c-7 83 -33
171 -74 253 -47 92 -57 97 -175 99 -56 1 -118 0 -137 -2z"/>
</g>
</svg>
